<svg class="logo" version="1.1" id="a11yTO_Logo" xmlns="http://www.w3.org/2000/svg" x="0" y="0" viewBox="-67.9 168.5 436.3 458.4" enable-background="new -67.9 168.5 436.3 458.4" xml:space="preserve" aria-labelledby="title desc" role="img"><title id="title">#a11yTO Logo</title><desc id="desc">An illustration of a silhouette of the Toronto skyline centred in a blue and red border.</desc><path id="Red_Oblong" fill="#D44519" d="M-20.5 503.8c-32.2-85.2 26.8-186.5 131.7-226.2s216.5-48.8 248.5 82.4S333 546.5 228 586.2 11.8 589-20.5 503.8z"/><path id="Blue_Oblong" opacity="0.8" fill="#1D7FA8" enable-background="new " d="M320.9 374.7c32.2 85.2-26.8 186.5-131.7 226.2C84.3 640.6-27.2 649.8-59.2 518.6s26.8-186.5 131.7-226.2S288.7 289.5 320.9 374.7z"/><path id="White_Cutout" fill="#FFFFFF" d="M259.3 569.7l-158.9 36.8c-58.5 15.3-117.1-29-136.9-118.7l-4.1-21.1c-13.2-68.1 14.6-131.4 64.9-148L180.4 267c60.7-20 128.6 35.2 144.2 117.3l6.8 36C345 491.8 313.4 557.2 259.3 569.7z"/><path id="Toronto_Skyline" fill="#444444" d="M322.2 512.6h-39.7l-3.2-131.3 11.8 0.1c3.3 0 6-2.6 6.1-5.9v-0.9c0-3.3-2.6-6-5.9-6.1h3.5l3.6-3 0.2-13.9 -5.8-12.7 -4-0.1 0.1-4.2 -6.2-0.1 0.2-14.5 -2.2-1.3v-3.2h-3l0.9-46.6c3.7-1.2 6.3-3.5 6.3-6.3 0-2.9-2.7-5.4-6.6-6.6v-0.7l-0.4-37.5c0.6-0.5 1-1.1 1-1.8s-0.4-1.3-1-1.9l-1.7-44.4c0-0.7-0.5-1.2-1.2-1.2s-1.2 0.5-1.2 1.2l-2.8 43.7c-1.3 0.5-2.2 1.5-2.2 2.5s0.8 1.9 1.9 2.5l-2.3 37.5c-4.2 1.1-7.1 3.6-7.1 6.5 0 2.6 2.1 4.8 5.4 6.2l-1.2 47.1h-3l-1 3.2 -1.5 1.5 -0.2 14 -6-0.1 -0.1 4.7 -3.7-0.1 -7.4 13.4 -0.2 13.2 3.7 2.3h2.3c-3.3 0-6 2.6-6.1 5.9v0.9c0 3.3 2.6 6 5.9 6.1l10.8 0.2 -13.8 139.8h-13.8c-0.6 0-1.2 0.5-1.2 1.2v3.6l-26.3-15.3c-49.5-28.7-113.2-27.7-161.3 2.3 -3.3 1.5-6.4 3.1-9.4 4.6 -0.8 0.4-1.7-0.1-1.7-1v-0.6c0-0.9-0.9-1.4-1.7-1.1 -7.5 3.4-13.9 7.3-19 11.5 -0.6 0.5-26.5-2.9-37.1-4 25.6 66.5 76.2 97.8 126.7 84.6l158.9-36.8c28.5-6.6 50.7-27.9 63.4-57C322.6 512.7 322.4 512.6 322.2 512.6z"/><g id="_x23_a11yTO"><path opacity="0.8" fill="#1D7FA8" enable-background="new " d="M-1.9 425.5h-4.9l-2 12.4h-6l2-12.4h-6.7V420h7.6l1.3-8h-6.7v-5.5h7.6l2.1-12.6h6l-2.1 12.6h4.9l2.1-12.6h6l-2.1 12.6h7v5.5H6.3L5 420h6.9v5.5H4.1l-2 12.4h-6L-1.9 425.5zM-5.9 420H-1l1.3-8h-4.9L-5.9 420z"/><path opacity="0.8" fill="#1D7FA8" enable-background="new " d="M42.8 437.9c-0.3-0.5-0.5-1.1-0.8-1.8 -0.2-0.6-0.4-1.3-0.6-2 -1 1.3-2.1 2.4-3.5 3.2 -1.4 0.8-3 1.2-5 1.2 -3.1 0-5.6-0.9-7.6-2.7 -1.9-1.8-2.9-4.2-2.9-7.2 0-3.2 1.2-5.7 3.6-7.5s6.1-2.6 11.1-2.6h3.7v-2.3c0-1.4-0.3-2.5-1-3.2s-1.7-1.1-3-1.1c-1.2 0-2 0.3-2.6 0.8 -0.6 0.6-0.9 1.4-0.9 2.6h-9.9l-0.1-0.2c-0.1-3 1.1-5.5 3.7-7.5s6.1-3 10.4-3c4 0 7.3 1 9.8 3s3.8 4.9 3.8 8.6v12.3c0 1.8 0.1 3.4 0.4 4.9 0.3 1.5 0.7 3 1.3 4.4L42.8 437.9zM36.1 431.2c1 0 1.9-0.2 2.8-0.6 0.8-0.4 1.5-0.9 2.1-1.6v-5h-3.6c-1.6 0-2.8 0.4-3.5 1.2 -0.7 0.8-1.1 1.8-1.1 3 0 0.9 0.3 1.7 1 2.3C34.3 431 35.1 431.2 36.1 431.2z"/><path opacity="0.8" fill="#1D7FA8" enable-background="new " d="M81.1 437.9H70.9v-33.8h-9.8v-7.2l20-3.1V437.9z"/><path opacity="0.8" fill="#1D7FA8" enable-background="new " d="M115.1 437.9h-10.2v-33.8h-9.8v-7.2l20-3.1V437.9z"/><path opacity="0.8" fill="#1D7FA8" enable-background="new " d="M143.4 423.5v0.2h0.2l5.4-18.5h10.9l-13 37.6c-1 2.4-2.3 4.4-3.9 6 -1.6 1.6-4.1 2.4-7.6 2.4 -0.9 0-1.6-0.1-2.2-0.2 -0.6-0.1-1.5-0.3-2.7-0.6l1.2-7.3c0.3 0.1 0.5 0.1 0.6 0.1s0.3 0 0.5 0c1.6 0 2.8-0.2 3.5-0.7s1.3-1.2 1.7-2.1l0.8-2.1 -11.3-33.1h10.8L143.4 423.5z"/><g opacity="0.8" enable-background="new "><path fill="#1D7FA8" d="M198.1 401.7h-11.6v36.1h-10.2v-36.1h-11.5v-7.9h33.4v7.9H198.1z"/></g><path opacity="0.8" fill="#1D7FA8" enable-background="new " d="M242 419.9c0 5.4-1.7 9.9-5.2 13.4 -3.4 3.5-7.9 5.3-13.5 5.3s-10.1-1.8-13.6-5.3 -5.2-8-5.2-13.4V412c0-5.4 1.7-9.9 5.2-13.4s8-5.3 13.5-5.3 10 1.8 13.5 5.3 5.2 8 5.2 13.4v7.9H242zM231.8 411.9c0-3.1-0.7-5.7-2.2-7.7s-3.6-3-6.3-3c-2.8 0-4.9 1-6.3 3 -1.5 2-2.2 4.6-2.2 7.8v8c0 3.2 0.7 5.8 2.2 7.8s3.6 3 6.4 3c2.7 0 4.8-1 6.2-3 1.5-2 2.2-4.6 2.2-7.8L231.8 411.9 231.8 411.9z"/></g></svg>