<svg id="hashtag_a11yTO_Camp_Logo" viewBox="0 0 690.2 175.2" xml:space="preserve" aria-labelledby="logo" role="img"><title id="logo">#a11yto Camp logo</title><rect id="askew_rectangle" x="4.5" y="15.3" transform="matrix(0.9975 -7.010678e-02 7.010678e-02 0.9975 -5.5853 16.0347)" fill="#076800" width="442.2" height="144.5"/><g id="hashtag_a11yTO"><path fill="#FFFFFF" d="M30.6 101.1v-9h9.5l1.8-12.4h-8.3v-9h9.5l2.8-19.8h9.7l-2.8 19.8h9.7l2.7-19.8h9.7l-2.7 19.8h7.4v9h-8.7l-1.7 12.4h7.4v9h-8.7l-2.7 19.8h-9.7l2.7-19.8h-9.6l-2.8 19.8h-9.7l2.8-19.8H30.6zM49.8 92.1h9.7l1.7-12.4h-9.6L49.8 92.1z"/><path fill="#FFFFFF" d="M85.4 85.1c0.2-3.3 1-6.1 2.5-8.3 1.5-2.2 3.3-4 5.6-5.3 2.3-1.3 4.8-2.3 7.7-2.9 2.8-0.6 5.7-0.9 8.6-0.9 2.6 0 5.2 0.2 7.9 0.6 2.7 0.4 5.1 1.1 7.3 2.1 2.2 1.1 4 2.5 5.4 4.4 1.4 1.9 2.1 4.4 2.1 7.6v26.9c0 2.3 0.1 4.6 0.4 6.7 0.3 2.1 0.7 3.7 1.4 4.8h-14.4c-0.3-0.8-0.5-1.6-0.7-2.5 -0.2-0.8-0.3-1.7-0.3-2.5 -2.3 2.3-4.9 4-8 4.9 -3.1 0.9-6.2 1.4-9.4 1.4 -2.5 0-4.8-0.3-6.9-0.9 -2.1-0.6-4-1.5-5.6-2.8 -1.6-1.3-2.8-2.9-3.8-4.8 -0.9-1.9-1.3-4.2-1.3-6.9 0-2.9 0.5-5.4 1.5-7.2 1-1.9 2.4-3.4 4-4.5 1.6-1.1 3.5-2 5.6-2.6 2.1-0.6 4.2-1 6.3-1.3 2.1-0.3 4.2-0.6 6.3-0.8 2.1-0.2 3.9-0.5 5.5-0.9s2.9-1 3.8-1.8c0.9-0.8 1.4-1.9 1.3-3.4 0-1.5-0.2-2.8-0.8-3.6s-1.2-1.6-2-2.1c-0.8-0.5-1.8-0.8-2.9-1 -1.1-0.2-2.3-0.2-3.6-0.2 -2.8 0-5 0.6-6.6 1.8 -1.6 1.2-2.5 3.2-2.8 6H85.4zM118.2 95.6c-0.6 0.5-1.4 0.9-2.2 1.2 -0.9 0.3-1.9 0.5-2.9 0.8 -1 0.2-2.1 0.4-3.2 0.5 -1.1 0.1-2.3 0.3-3.4 0.5 -1.1 0.2-2.1 0.5-3.2 0.8 -1 0.3-1.9 0.8-2.7 1.4 -0.8 0.6-1.4 1.3-1.8 2.1 -0.5 0.9-0.7 2-0.7 3.3 0 1.3 0.2 2.3 0.7 3.2 0.5 0.9 1.1 1.5 1.9 2s1.7 0.9 2.8 1.1c1.1 0.2 2.2 0.3 3.3 0.3 2.8 0 5-0.5 6.5-1.4 1.5-0.9 2.7-2 3.4-3.4 0.7-1.3 1.2-2.6 1.4-3.9 0.2-1.3 0.2-2.4 0.2-3.2V95.6z"/><path fill="#FFFFFF" d="M157.8 120.9V75.5h-17.6V64.8c2.5 0.1 4.8-0.1 7.1-0.5 2.3-0.4 4.4-1.2 6.2-2.3 1.8-1.1 3.4-2.5 4.7-4.3 1.3-1.8 2.1-4 2.5-6.7H172v70H157.8z"/><path fill="#FFFFFF" d="M202.7 120.9V75.5h-17.6V64.8c2.5 0.1 4.8-0.1 7.1-0.5 2.3-0.4 4.4-1.2 6.2-2.3 1.8-1.1 3.4-2.5 4.7-4.3 1.3-1.8 2.1-4 2.5-6.7h11.3v70H202.7z"/><path fill="#FFFFFF" d="M251.6 136.3c-2.7 1.8-6.5 2.7-11.4 2.7 -1.5 0-2.9-0.1-4.3-0.1 -1.4-0.1-2.9-0.2-4.3-0.4v-11.7c1.3 0.1 2.7 0.3 4.1 0.4 1.4 0.1 2.8 0.2 4.2 0.1 1.9-0.2 3.2-0.9 4.1-2.2 0.9-1.3 1.4-2.7 1.4-4.2 0-1.1-0.2-2.2-0.6-3.2l-18.1-48.5h15.1l11.7 35.4h0.2l11.3-35.4h14.7L258 127.3C256.4 131.5 254.3 134.5 251.6 136.3z"/><path fill="#FFFFFF" d="M290.6 62.7V49.5h58.5v13.2h-21.4v58.2H312V62.7H290.6z"/><path fill="#FFFFFF" d="M353.8 70.6c1.6-4.6 3.9-8.5 6.9-12 3-3.4 6.7-6.1 11.1-8 4.4-1.9 9.3-2.9 14.8-2.9 5.5 0 10.5 1 14.8 2.9 4.3 1.9 8 4.6 11 8 3 3.4 5.3 7.4 6.9 12 1.6 4.6 2.4 9.5 2.4 14.9 0 5.2-0.8 10-2.4 14.5s-3.9 8.4-6.9 11.8c-3 3.3-6.7 6-11 7.9s-9.3 2.9-14.8 2.9c-5.5 0-10.4-1-14.8-2.9 -4.4-1.9-8.1-4.5-11.1-7.9 -3-3.3-5.3-7.2-6.9-11.8s-2.4-9.4-2.4-14.5C351.4 80.1 352.2 75.2 353.8 70.6zM368.1 94.2c0.7 2.8 1.8 5.4 3.4 7.6 1.5 2.3 3.5 4.1 6 5.5 2.5 1.4 5.5 2 9 2 3.5 0 6.5-0.7 9-2 2.5-1.4 4.5-3.2 6-5.5 1.5-2.3 2.6-4.8 3.3-7.6 0.7-2.8 1-5.8 1-8.8 0-3.1-0.3-6.2-1-9.1 -0.7-2.9-1.8-5.5-3.3-7.9 -1.5-2.3-3.5-4.1-6-5.5 -2.5-1.4-5.5-2-9-2 -3.5 0-6.5 0.7-9 2 -2.5 1.4-4.5 3.2-6 5.5 -1.5 2.3-2.7 4.9-3.4 7.9 -0.7 2.9-1 6-1 9.1C367.1 88.5 367.4 91.4 368.1 94.2z"/></g><g id="Camp"><path fill="#076800" d="M515.1 68.5c-0.9-1.5-2.1-2.8-3.5-3.9 -1.4-1.1-3-2-4.8-2.7 -1.8-0.6-3.6-1-5.5-1 -3.5 0-6.5 0.7-9 2 -2.5 1.4-4.5 3.2-6 5.5 -1.5 2.3-2.7 4.9-3.4 7.9 -0.7 2.9-1 6-1 9.1 0 3 0.3 5.9 1 8.8 0.7 2.8 1.8 5.4 3.4 7.7 1.5 2.3 3.5 4.1 6 5.5 2.5 1.4 5.5 2 9 2 4.8 0 8.5-1.5 11.2-4.4 2.7-2.9 4.3-6.8 4.9-11.6h15.2c-0.4 4.5-1.4 8.5-3.1 12.1 -1.7 3.6-3.9 6.7-6.6 9.2 -2.7 2.5-5.9 4.5-9.6 5.8 -3.7 1.3-7.7 2-12.1 2 -5.5 0-10.4-1-14.8-2.8 -4.4-1.9-8.1-4.5-11.1-7.9 -3-3.3-5.3-7.2-6.9-11.8 -1.6-4.5-2.4-9.3-2.4-14.5 0-5.3 0.8-10.3 2.4-14.8 1.6-4.6 3.9-8.5 6.9-12s6.7-6.1 11.1-8c4.4-1.9 9.3-2.9 14.8-2.9 3.9 0 7.6 0.6 11.1 1.7 3.5 1.1 6.6 2.8 9.4 5 2.8 2.2 5 4.8 6.8 8 1.8 3.2 2.9 6.9 3.4 11h-15.2C516.7 71.7 516.1 70 515.1 68.5z"/><path fill="#076800" d="M541.3 85.1c0.2-3.3 1-6.1 2.5-8.3 1.5-2.2 3.3-4 5.6-5.3 2.3-1.3 4.8-2.3 7.6-2.8 2.8-0.6 5.7-0.9 8.5-0.9 2.6 0 5.2 0.2 7.9 0.6 2.7 0.4 5.1 1.1 7.3 2.1 2.2 1.1 4 2.5 5.4 4.5 1.4 1.9 2.1 4.4 2.1 7.5v26.9c0 2.3 0.1 4.6 0.4 6.7 0.3 2.1 0.7 3.7 1.4 4.8h-14.4c-0.3-0.8-0.5-1.6-0.7-2.5 -0.2-0.8-0.3-1.7-0.3-2.5 -2.3 2.3-4.9 4-8 4.9 -3.1 0.9-6.2 1.4-9.4 1.4 -2.5 0-4.8-0.3-6.9-0.9 -2.1-0.6-4-1.5-5.6-2.8 -1.6-1.3-2.8-2.9-3.8-4.8 -0.9-1.9-1.3-4.2-1.3-6.9 0-2.9 0.5-5.3 1.5-7.2 1-1.9 2.4-3.4 4-4.5 1.6-1.1 3.5-2 5.6-2.5 2.1-0.6 4.2-1 6.4-1.3 2.1-0.3 4.2-0.6 6.3-0.8 2.1-0.2 3.9-0.5 5.5-0.9 1.6-0.4 2.9-1 3.8-1.8 0.9-0.8 1.4-1.9 1.3-3.4 0-1.5-0.2-2.8-0.8-3.6 -0.5-0.9-1.2-1.6-2-2.1 -0.8-0.5-1.8-0.8-2.9-1 -1.1-0.2-2.3-0.2-3.5-0.2 -2.8 0-5 0.6-6.6 1.8 -1.6 1.2-2.5 3.2-2.8 6H541.3zM574.1 95.6c-0.6 0.5-1.3 0.9-2.2 1.2 -0.9 0.3-1.9 0.5-2.9 0.8 -1 0.2-2.1 0.4-3.2 0.5 -1.1 0.1-2.3 0.3-3.4 0.5 -1.1 0.2-2.1 0.5-3.1 0.8 -1 0.3-1.9 0.8-2.7 1.3 -0.8 0.6-1.4 1.3-1.9 2.2 -0.5 0.9-0.7 2-0.7 3.3 0 1.3 0.2 2.3 0.7 3.2 0.5 0.9 1.1 1.5 1.9 2s1.7 0.8 2.8 1c1.1 0.2 2.2 0.3 3.3 0.3 2.8 0 5-0.5 6.5-1.4 1.5-0.9 2.7-2 3.4-3.4 0.7-1.3 1.2-2.6 1.3-3.9 0.2-1.3 0.2-2.4 0.2-3.2V95.6z"/><path fill="#076800" d="M613.1 69.2v7h0.2c1.9-2.7 4.1-4.7 6.8-6.2 2.6-1.5 5.6-2.2 9-2.2 3.3 0 6.2 0.6 9 1.9 2.7 1.3 4.8 3.5 6.1 6.7 1.5-2.3 3.6-4.3 6.2-6 2.6-1.7 5.8-2.6 9.4-2.6 2.7 0 5.3 0.3 7.6 1 2.3 0.7 4.3 1.7 6 3.2 1.7 1.5 3 3.4 3.9 5.8 0.9 2.4 1.4 5.2 1.4 8.5v34.6h-14.2V91.6c0-1.7-0.1-3.4-0.2-4.9 -0.1-1.5-0.5-2.9-1.1-4 -0.6-1.1-1.5-2-2.6-2.7 -1.2-0.7-2.8-1-4.8-1s-3.6 0.4-4.9 1.2c-1.2 0.8-2.2 1.8-2.9 3 -0.7 1.2-1.2 2.6-1.4 4.2 -0.2 1.6-0.3 3.1-0.3 4.8v28.8h-14.2v-29c0-1.5 0-3-0.1-4.5s-0.3-2.9-0.8-4.2c-0.5-1.3-1.3-2.3-2.5-3 -1.2-0.8-2.9-1.2-5.2-1.2 -0.7 0-1.5 0.2-2.6 0.5 -1.1 0.3-2.2 0.9-3.2 1.7 -1 0.8-1.9 2-2.7 3.6 -0.7 1.6-1.1 3.6-1.1 6.2v30h-14.2V69.2H613.1z"/><path fill="#076800" d="M703.4 69.2v6.6h0.2c1.7-2.8 3.9-4.8 6.6-6.1 2.7-1.3 5.6-1.9 8.8-1.9 4.1 0 7.6 0.8 10.5 2.3 2.9 1.5 5.4 3.6 7.3 6.1 1.9 2.5 3.4 5.5 4.3 8.8 0.9 3.4 1.4 6.9 1.4 10.6 0 3.5-0.5 6.8-1.4 10 -0.9 3.2-2.3 6-4.2 8.5 -1.9 2.5-4.3 4.4-7.1 5.9 -2.8 1.5-6.2 2.2-10 2.2 -3.2 0-6.1-0.7-8.8-2s-4.9-3.2-6.7-5.8h-0.2V139h-14.2V69.2H703.4zM721.9 110.2c1.6-0.9 2.8-2.2 3.8-3.7 1-1.5 1.6-3.2 2-5.2 0.4-2 0.6-4 0.6-6.1 0-2.1-0.2-4.1-0.6-6.1 -0.4-2-1.2-3.8-2.2-5.4 -1-1.6-2.3-2.8-3.8-3.8 -1.6-1-3.5-1.5-5.8-1.5 -2.3 0-4.3 0.5-5.9 1.5 -1.6 1-2.8 2.2-3.8 3.8 -1 1.5-1.7 3.3-2 5.3 -0.4 2-0.6 4.1-0.6 6.2 0 2.1 0.2 4.1 0.7 6.1 0.4 2 1.1 3.8 2.1 5.2 1 1.5 2.2 2.7 3.9 3.7 1.6 0.9 3.5 1.4 5.8 1.4C718.4 111.6 720.3 111.1 721.9 110.2z"/></g></svg>