<svg xmlns="http://www.w3.org/2000/svg" viewBox="0 0 820.4 175.2" aria-labelledby="logo" role="img"><title id="logo">#a11yTO Camp logo</title><rect class="askew-rectangle" x="4.5" y="15.3" transform="matrix(0.9975 -7.010678e-02 7.010678e-02 0.9975 -5.5853 16.0347)" fill="#B30A2E" width="442.2" height="144.5"/><g class="lettering"><path class="hashtag-a11yto" fill="#FFFFFF" d="M30.6 101.1v-9h9.5l1.8-12.4h-8.3v-9h9.5l2.8-19.8h9.7l-2.8 19.8h9.7l2.7-19.8h9.7l-2.7 19.8h7.4v9h-8.7l-1.7 12.4h7.4v9h-8.7l-2.7 19.8h-9.7l2.7-19.8h-9.6l-2.8 19.8h-9.7l2.8-19.8H30.6zM49.8 92.1h9.7l1.7-12.4h-9.6L49.8 92.1zM85.4 85.1c0.2-3.3 1-6.1 2.5-8.3 1.5-2.2 3.3-4 5.6-5.3 2.3-1.3 4.8-2.3 7.6-2.9 2.8-0.6 5.7-0.9 8.6-0.9 2.6 0 5.2 0.2 7.9 0.6 2.7 0.4 5.1 1.1 7.3 2.1 2.2 1.1 4 2.5 5.4 4.4 1.4 1.9 2.1 4.4 2.1 7.6v26.9c0 2.3 0.1 4.6 0.4 6.7 0.3 2.1 0.7 3.7 1.4 4.8h-14.4c-0.3-0.8-0.5-1.6-0.7-2.5 -0.2-0.8-0.3-1.7-0.3-2.5 -2.3 2.3-4.9 4-8 4.9 -3.1 0.9-6.2 1.4-9.4 1.4 -2.5 0-4.8-0.3-6.9-0.9 -2.1-0.6-4-1.5-5.6-2.8 -1.6-1.3-2.8-2.9-3.8-4.8 -0.9-1.9-1.3-4.2-1.3-6.9 0-2.9 0.5-5.4 1.5-7.2 1-1.9 2.4-3.4 4-4.5 1.6-1.1 3.5-2 5.6-2.6 2.1-0.6 4.2-1 6.3-1.3 2.1-0.3 4.2-0.6 6.3-0.8 2.1-0.2 3.9-0.5 5.5-0.9 1.6-0.4 2.9-1 3.8-1.8 0.9-0.8 1.4-1.9 1.3-3.4 0-1.5-0.2-2.8-0.8-3.6s-1.2-1.6-2-2.1c-0.8-0.5-1.8-0.8-2.9-1 -1.1-0.2-2.3-0.2-3.5-0.2 -2.8 0-5 0.6-6.6 1.8 -1.6 1.2-2.5 3.2-2.8 6H85.4zM118.2 95.6c-0.6 0.5-1.4 0.9-2.2 1.2 -0.9 0.3-1.9 0.5-2.9 0.8 -1 0.2-2.1 0.4-3.2 0.5 -1.1 0.1-2.3 0.3-3.4 0.5 -1.1 0.2-2.1 0.5-3.1 0.8 -1 0.3-1.9 0.8-2.7 1.4 -0.8 0.6-1.4 1.3-1.8 2.1 -0.5 0.9-0.7 2-0.7 3.3 0 1.3 0.2 2.3 0.7 3.2 0.5 0.9 1.1 1.5 1.9 2s1.7 0.9 2.8 1.1c1.1 0.2 2.2 0.3 3.3 0.3 2.8 0 5-0.5 6.5-1.4 1.5-0.9 2.7-2 3.4-3.4 0.7-1.3 1.2-2.6 1.4-3.9 0.2-1.3 0.2-2.4 0.2-3.2V95.6zM157.8 120.9V75.5h-17.6V64.8c2.5 0.1 4.8-0.1 7.1-0.5 2.3-0.4 4.4-1.2 6.2-2.3 1.8-1.1 3.4-2.5 4.7-4.3 1.3-1.8 2.1-4 2.5-6.7H172v70H157.8zM202.7 120.9V75.5h-17.6V64.8c2.5 0.1 4.8-0.1 7.1-0.5 2.3-0.4 4.4-1.2 6.2-2.3 1.8-1.1 3.4-2.5 4.7-4.3 1.3-1.8 2.1-4 2.5-6.7h11.3v70H202.7zM251.6 136.3c-2.7 1.8-6.5 2.7-11.4 2.7 -1.5 0-2.9-0.1-4.4-0.1 -1.4-0.1-2.9-0.2-4.3-0.4v-11.7c1.3 0.1 2.7 0.3 4.1 0.4 1.4 0.1 2.8 0.2 4.2 0.1 1.9-0.2 3.2-0.9 4.2-2.2 0.9-1.3 1.3-2.7 1.3-4.2 0-1.1-0.2-2.2-0.6-3.2l-18.1-48.5h15.1l11.7 35.4h0.2l11.3-35.4h14.7L258 127.3C256.4 131.5 254.3 134.5 251.6 136.3zM290.6 62.7V49.5h58.5v13.2h-21.4v58.2H312V62.7H290.6zM353.8 70.6c1.6-4.6 3.9-8.5 6.9-12 3-3.4 6.7-6.1 11.1-8 4.4-1.9 9.3-2.9 14.8-2.9 5.5 0 10.5 1 14.8 2.9 4.3 1.9 8 4.6 11 8 3 3.4 5.3 7.4 6.9 12 1.6 4.6 2.4 9.5 2.4 14.9 0 5.2-0.8 10-2.4 14.5s-3.9 8.4-6.9 11.8c-3 3.3-6.7 6-11 7.9s-9.3 2.9-14.8 2.9c-5.5 0-10.4-1-14.8-2.9 -4.4-1.9-8.1-4.5-11.1-7.9 -3-3.3-5.3-7.2-6.9-11.8s-2.4-9.4-2.4-14.5C351.4 80.1 352.2 75.2 353.8 70.6zM368.1 94.2c0.7 2.8 1.8 5.4 3.4 7.6 1.5 2.3 3.5 4.1 6 5.5 2.5 1.4 5.5 2 9 2 3.5 0 6.5-0.7 9-2 2.5-1.4 4.5-3.2 6-5.5 1.5-2.3 2.6-4.8 3.3-7.6 0.7-2.8 1-5.8 1-8.8 0-3.1-0.3-6.2-1-9.1 -0.7-2.9-1.8-5.5-3.3-7.9 -1.5-2.3-3.5-4.1-6-5.5 -2.5-1.4-5.5-2-9-2 -3.5 0-6.5 0.7-9 2 -2.5 1.4-4.5 3.2-6 5.5 -1.5 2.3-2.7 4.9-3.4 7.9 -0.7 2.9-1 6-1 9.1C367.1 88.5 367.4 91.4 368.1 94.2z"/><path class="meetup" fill="#B30A2E" d="M491.4 49.5l16.7 49.1h0.2l15.8-49.1h22.1v71.4h-14.7V70.3h-0.2l-17.5 50.6h-12.1l-17.5-50.1H484v50.1h-14.7V49.5H491.4zM573.7 108.5c2.1 2.1 5.2 3.1 9.2 3.1 2.9 0 5.3-0.7 7.4-2.2 2.1-1.4 3.3-3 3.8-4.5h12.5c-2 6.2-5.1 10.6-9.2 13.3 -4.1 2.7-9.1 4-15 4 -4.1 0-7.7-0.7-11-2 -3.3-1.3-6-3.1-8.3-5.5 -2.3-2.4-4-5.3-5.2-8.6 -1.2-3.3-1.8-7-1.8-11 0-3.9 0.6-7.5 1.9-10.8 1.3-3.3 3.1-6.2 5.4-8.6 2.3-2.4 5.1-4.4 8.3-5.8 3.2-1.4 6.8-2.1 10.8-2.1 4.4 0 8.2 0.9 11.5 2.6 3.3 1.7 6 4 8 6.8 2.1 2.9 3.6 6.1 4.6 9.8 0.9 3.7 1.3 7.5 1 11.5h-37.3C570.4 103.1 571.6 106.4 573.7 108.5zM589.8 81.3c-1.7-1.9-4.3-2.8-7.8-2.8 -2.3 0-4.2 0.4-5.7 1.2 -1.5 0.8-2.7 1.7-3.6 2.8 -0.9 1.1-1.5 2.3-1.9 3.6 -0.4 1.3-0.6 2.4-0.7 3.4h23.1C592.7 85.9 591.5 83.1 589.8 81.3zM631.1 108.5c2.1 2.1 5.2 3.1 9.2 3.1 2.9 0 5.3-0.7 7.4-2.2 2.1-1.4 3.3-3 3.8-4.5H664c-2 6.2-5.1 10.6-9.2 13.3 -4.1 2.7-9.1 4-15 4 -4.1 0-7.7-0.7-11-2 -3.3-1.3-6-3.1-8.3-5.5 -2.3-2.4-4-5.3-5.2-8.6 -1.2-3.3-1.8-7-1.8-11 0-3.9 0.6-7.5 1.9-10.8 1.3-3.3 3.1-6.2 5.4-8.6 2.3-2.4 5.1-4.4 8.3-5.8 3.2-1.4 6.8-2.1 10.8-2.1 4.4 0 8.2 0.9 11.5 2.6 3.3 1.7 6 4 8 6.8 2.1 2.9 3.6 6.1 4.6 9.8 0.9 3.7 1.3 7.5 1 11.5h-37.3C627.8 103.1 629 106.4 631.1 108.5zM647.2 81.3c-1.7-1.9-4.3-2.8-7.8-2.8 -2.3 0-4.2 0.4-5.7 1.2 -1.5 0.8-2.7 1.7-3.6 2.8 -0.9 1.1-1.5 2.3-1.9 3.6 -0.4 1.3-0.6 2.4-0.7 3.4h23.1C650.1 85.9 648.9 83.1 647.2 81.3zM701.7 69.2v9.5h-10.4v25.6c0 2.4 0.4 4 1.2 4.8 0.8 0.8 2.4 1.2 4.8 1.2 0.8 0 1.6 0 2.3-0.1 0.7-0.1 1.4-0.2 2.1-0.3v11c-1.2 0.2-2.5 0.3-4 0.4 -1.5 0.1-2.9 0.1-4.3 0.1 -2.2 0-4.3-0.2-6.2-0.5 -2-0.3-3.7-0.9-5.2-1.8 -1.5-0.9-2.7-2.1-3.5-3.7 -0.9-1.6-1.3-3.7-1.3-6.3V78.7h-8.6v-9.5h8.6V53.7h14.2v15.5H701.7zM743.5 120.9v-7.2h-0.3c-1.8 3-4.1 5.2-7 6.5 -2.9 1.3-5.8 2-8.8 2 -3.8 0-6.9-0.5-9.3-1.5 -2.4-1-4.4-2.4-5.8-4.2 -1.4-1.8-2.4-4.1-3-6.7 -0.6-2.6-0.8-5.5-0.8-8.8V69.2h14.2v29.2c0 4.3 0.7 7.5 2 9.5 1.3 2.1 3.7 3.2 7.1 3.2 3.9 0 6.7-1.2 8.4-3.5 1.7-2.3 2.6-6.1 2.6-11.4V69.2H757v51.7H743.5zM781.3 69.2v6.6h0.2c1.7-2.8 3.9-4.8 6.6-6.1 2.7-1.3 5.6-1.9 8.8-1.9 4.1 0 7.6 0.8 10.5 2.3 2.9 1.5 5.4 3.6 7.3 6.1 1.9 2.5 3.4 5.5 4.3 8.8 0.9 3.4 1.4 6.9 1.4 10.6 0 3.5-0.5 6.8-1.4 10 -0.9 3.2-2.3 6-4.2 8.5 -1.9 2.5-4.3 4.4-7.1 5.9 -2.8 1.5-6.2 2.2-10 2.2 -3.2 0-6.1-0.7-8.8-2s-4.9-3.2-6.7-5.8H782V139h-14.2V69.2H781.3zM799.8 110.2c1.6-0.9 2.8-2.2 3.8-3.7 1-1.5 1.6-3.2 2-5.2 0.4-2 0.6-4 0.6-6.1 0-2.1-0.2-4.1-0.6-6.1 -0.4-2-1.2-3.8-2.2-5.4 -1-1.6-2.3-2.8-3.8-3.8 -1.6-1-3.5-1.5-5.8-1.5 -2.3 0-4.3 0.5-5.9 1.5 -1.6 1-2.8 2.2-3.8 3.8 -1 1.5-1.7 3.3-2 5.3 -0.4 2-0.6 4.1-0.6 6.2 0 2.1 0.2 4.1 0.7 6.1 0.4 2 1.1 3.8 2.1 5.2 1 1.5 2.2 2.7 3.9 3.7 1.6 0.9 3.5 1.4 5.8 1.4C796.3 111.6 798.2 111.1 799.8 110.2z"/></g></svg>